<svg width="300" height="190" viewBox="0 0 300 190" fill="none" xmlns="http://www.w3.org/2000/svg">
<g clip-path="url(#clip0_8953_1617)">
<g filter="url(#filter0_d_8953_1617)">
<path d="M48 65.75H112.55V124.25H48C43.9959 124.25 40.75 121.004 40.75 117V73C40.75 68.9959 43.9959 65.75 48 65.75Z" fill="#353157" stroke="#86839A" stroke-width="1.5"/>
<mask id="path-2-inside-1_8953_1617" fill="white">
<path d="M113.35 65H186.65V125H113.35V65Z"/>
</mask>
<path d="M113.35 65H186.65V125H113.35V65Z" fill="#353157"/>
<path d="M113.35 65V66.5H186.65V65V63.5H113.35V65ZM186.65 125V123.5H113.35V125V126.5H186.65V125Z" fill="#86839A" mask="url(#path-2-inside-1_8953_1617)"/>
<path d="M252 65.75H187.45V124.25H252C256.004 124.25 259.25 121.004 259.25 117V73C259.25 68.9959 256.004 65.75 252 65.75Z" fill="#353157" stroke="#86839A" stroke-width="1.5"/>
<path d="M57 95C57 93.3431 58.3431 92 60 92H94C95.6569 92 97 93.3431 97 95V95C97 96.6569 95.6569 98 94 98H60C58.3431 98 57 96.6569 57 95V95Z" fill="#D7D6DD"/>
<path d="M130 95C130 93.3431 131.343 92 133 92H167C168.657 92 170 93.3431 170 95V95C170 96.6569 168.657 98 167 98H133C131.343 98 130 96.6569 130 95V95Z" fill="#D7D6DD"/>
<path d="M203 95C203 93.3431 204.343 92 206 92H240C241.657 92 243 93.3431 243 95V95C243 96.6569 241.657 98 240 98H206C204.343 98 203 96.6569 203 95V95Z" fill="#D7D6DD"/>
</g>
</g>
<defs>
<filter id="filter0_d_8953_1617" x="22" y="47" width="256" height="96" filterUnits="userSpaceOnUse" color-interpolation-filters="sRGB">
<feFlood flood-opacity="0" result="BackgroundImageFix"/>
<feColorMatrix in="SourceAlpha" type="matrix" values="0 0 0 0 0 0 0 0 0 0 0 0 0 0 0 0 0 0 127 0" result="hardAlpha"/>
<feMorphology radius="4" operator="dilate" in="SourceAlpha" result="effect1_dropShadow_8953_1617"/>
<feOffset/>
<feGaussianBlur stdDeviation="7"/>
<feComposite in2="hardAlpha" operator="out"/>
<feColorMatrix type="matrix" values="0 0 0 0 0.101256 0 0 0 0 0.0384361 0 0 0 0 0.172451 0 0 0 1 0"/>
<feBlend mode="normal" in2="BackgroundImageFix" result="effect1_dropShadow_8953_1617"/>
<feBlend mode="normal" in="SourceGraphic" in2="effect1_dropShadow_8953_1617" result="shape"/>
</filter>
<clipPath id="clip0_8953_1617">
<rect width="300" height="190" fill="white"/>
</clipPath>
</defs>
</svg>
