<svg width="300" height="190" viewBox="0 0 300 190" fill="none" xmlns="http://www.w3.org/2000/svg">
<g clip-path="url(#clip0_8953_1636)">
<g filter="url(#filter0_d_8953_1636)">
<path d="M68 34.75H232C236.004 34.75 239.25 37.9959 239.25 42V59.25H60.75V42C60.75 37.9959 63.9959 34.75 68 34.75Z" fill="#353157" stroke="#86839A" stroke-width="1.5"/>
<path d="M68 153.25H232C236.004 153.25 239.25 150.004 239.25 146V58.75H60.75V146C60.75 150.004 63.9959 153.25 68 153.25Z" fill="#353157" stroke="#86839A" stroke-width="1.5"/>
<rect x="120" y="44" width="60" height="6" rx="3" fill="#86839A"/>
<path d="M85.0408 74.8551C85.0181 74.6259 84.9206 74.4479 84.7482 74.321C84.5759 74.1941 84.342 74.1307 84.0465 74.1307C83.8458 74.1307 83.6763 74.1591 83.538 74.2159C83.3997 74.2708 83.2937 74.3475 83.2198 74.446C83.1478 74.5445 83.1119 74.6562 83.1119 74.7812C83.1081 74.8854 83.1299 74.9763 83.1772 75.054C83.2264 75.1316 83.2937 75.1989 83.3789 75.2557C83.4641 75.3106 83.5626 75.3589 83.6744 75.4006C83.7861 75.4403 83.9054 75.4744 84.0323 75.5028L84.555 75.6278C84.8088 75.6847 85.0418 75.7604 85.2539 75.8551C85.466 75.9498 85.6497 76.0663 85.805 76.2045C85.9603 76.3428 86.0806 76.5057 86.1658 76.6932C86.253 76.8807 86.2975 77.0956 86.2994 77.3381C86.2975 77.6941 86.2066 78.0028 86.0266 78.2642C85.8486 78.5237 85.591 78.7254 85.2539 78.8693C84.9187 79.0114 84.5143 79.0824 84.0408 79.0824C83.5711 79.0824 83.1621 79.0104 82.8136 78.8665C82.467 78.7225 82.1961 78.5095 82.0011 78.2273C81.8079 77.9432 81.7066 77.5919 81.6971 77.1733H82.8874C82.9007 77.3684 82.9566 77.5312 83.055 77.6619C83.1554 77.7907 83.2889 77.8883 83.4556 77.9545C83.6242 78.0189 83.8145 78.0511 84.0266 78.0511C84.235 78.0511 84.4158 78.0208 84.5692 77.9602C84.7246 77.8996 84.8448 77.8153 84.93 77.7074C85.0153 77.5994 85.0579 77.4754 85.0579 77.3352C85.0579 77.2045 85.0191 77.0947 84.9414 77.0057C84.8656 76.9167 84.7539 76.8409 84.6062 76.7784C84.4603 76.7159 84.2814 76.6591 84.0692 76.608L83.4357 76.4489C82.9452 76.3295 82.5579 76.143 82.2738 75.8892C81.9897 75.6354 81.8486 75.2936 81.8505 74.8636C81.8486 74.5114 81.9424 74.2036 82.1317 73.9403C82.323 73.6771 82.5853 73.4716 82.9187 73.3239C83.252 73.1761 83.6308 73.1023 84.055 73.1023C84.4869 73.1023 84.8638 73.1761 85.1857 73.3239C85.5096 73.4716 85.7615 73.6771 85.9414 73.9403C86.1213 74.2036 86.2141 74.5085 86.2198 74.8551H85.0408Z" fill="#86839A"/>
<path d="M102.846 73.1818H104.363L105.965 77.0909H106.033L107.635 73.1818H109.152V79H107.959V75.2131H107.911L106.405 78.9716H105.593L104.087 75.1989H104.039V79H102.846V73.1818Z" fill="#86839A"/>
<path d="M125.612 74.196V73.1818H130.391V74.196H128.609V79H127.393V74.196H125.612Z" fill="#86839A"/>
<path d="M147.671 79L146.006 73.1818H147.35L148.313 77.2244H148.361L149.424 73.1818H150.574L151.634 77.233H151.685L152.648 73.1818H153.992L152.327 79H151.128L150.02 75.196H149.975L148.87 79H147.671Z" fill="#86839A"/>
<path d="M169.612 74.196V73.1818H174.391V74.196H172.609V79H171.393V74.196H169.612Z" fill="#86839A"/>
<path d="M192.166 79V73.1818H196.018V74.196H193.396V75.5824H195.762V76.5966H193.396V79H192.166Z" fill="#86839A"/>
<path d="M217.041 74.8551C217.018 74.6259 216.921 74.4479 216.748 74.321C216.576 74.1941 216.342 74.1307 216.047 74.1307C215.846 74.1307 215.676 74.1591 215.538 74.2159C215.4 74.2708 215.294 74.3475 215.22 74.446C215.148 74.5445 215.112 74.6562 215.112 74.7812C215.108 74.8854 215.13 74.9763 215.177 75.054C215.226 75.1316 215.294 75.1989 215.379 75.2557C215.464 75.3106 215.563 75.3589 215.674 75.4006C215.786 75.4403 215.905 75.4744 216.032 75.5028L216.555 75.6278C216.809 75.6847 217.042 75.7604 217.254 75.8551C217.466 75.9498 217.65 76.0663 217.805 76.2045C217.96 76.3428 218.081 76.5057 218.166 76.6932C218.253 76.8807 218.297 77.0956 218.299 77.3381C218.297 77.6941 218.207 78.0028 218.027 78.2642C217.849 78.5237 217.591 78.7254 217.254 78.8693C216.919 79.0114 216.514 79.0824 216.041 79.0824C215.571 79.0824 215.162 79.0104 214.814 78.8665C214.467 78.7225 214.196 78.5095 214.001 78.2273C213.808 77.9432 213.707 77.5919 213.697 77.1733H214.887C214.901 77.3684 214.957 77.5312 215.055 77.6619C215.155 77.7907 215.289 77.8883 215.456 77.9545C215.624 78.0189 215.815 78.0511 216.027 78.0511C216.235 78.0511 216.416 78.0208 216.569 77.9602C216.725 77.8996 216.845 77.8153 216.93 77.7074C217.015 77.5994 217.058 77.4754 217.058 77.3352C217.058 77.2045 217.019 77.0947 216.941 77.0057C216.866 76.9167 216.754 76.8409 216.606 76.7784C216.46 76.7159 216.281 76.6591 216.069 76.608L215.436 76.4489C214.945 76.3295 214.558 76.143 214.274 75.8892C213.99 75.6354 213.849 75.2936 213.85 74.8636C213.849 74.5114 213.942 74.2036 214.132 73.9403C214.323 73.6771 214.585 73.4716 214.919 73.3239C215.252 73.1761 215.631 73.1023 216.055 73.1023C216.487 73.1023 216.864 73.1761 217.186 73.3239C217.51 73.4716 217.761 73.6771 217.941 73.9403C218.121 74.2036 218.214 74.5085 218.22 74.8551H217.041Z" fill="#86839A"/>
<rect x="80" y="91" width="8" height="8" rx="2" fill="#86839A"/>
<rect x="102" y="91" width="8" height="8" rx="2" fill="#86839A"/>
<rect x="124" y="91" width="8" height="8" rx="2" fill="#86839A"/>
<rect x="146" y="91" width="8" height="8" rx="2" fill="#86839A"/>
<rect x="168" y="91" width="8" height="8" rx="2" fill="#86839A"/>
<rect x="190" y="91" width="8" height="8" rx="2" fill="#86839A"/>
<rect x="212" y="91" width="8" height="8" rx="2" fill="#86839A"/>
<rect x="80" y="111" width="8" height="8" rx="2" fill="#86839A"/>
<rect x="102" y="111" width="8" height="8" rx="2" fill="#86839A"/>
<rect x="124" y="111" width="8" height="8" rx="2" fill="#86839A"/>
<rect x="146" y="111" width="8" height="8" rx="2" fill="#86839A"/>
<rect x="168" y="111" width="8" height="8" rx="2" fill="#86839A"/>
<rect x="190" y="111" width="8" height="8" rx="2" fill="#86839A"/>
<rect x="212" y="111" width="8" height="8" rx="2" fill="#86839A"/>
<rect x="80" y="131" width="8" height="8" rx="2" fill="#86839A"/>
<rect x="102" y="131" width="8" height="8" rx="2" fill="#86839A"/>
<rect x="124" y="131" width="8" height="8" rx="2" fill="#86839A"/>
<rect x="146" y="131" width="8" height="8" rx="2" fill="#86839A"/>
<rect x="168" y="131" width="8" height="8" rx="2" fill="#86839A"/>
<rect x="190" y="131" width="8" height="8" rx="2" fill="#86839A"/>
<rect x="212" y="131" width="8" height="8" rx="2" fill="#86839A"/>
<rect x="165" y="108" width="14" height="14" rx="2" fill="#D7D6DD"/>
</g>
</g>
<defs>
<filter id="filter0_d_8953_1636" x="42" y="16" width="216" height="156" filterUnits="userSpaceOnUse" color-interpolation-filters="sRGB">
<feFlood flood-opacity="0" result="BackgroundImageFix"/>
<feColorMatrix in="SourceAlpha" type="matrix" values="0 0 0 0 0 0 0 0 0 0 0 0 0 0 0 0 0 0 127 0" result="hardAlpha"/>
<feMorphology radius="4" operator="dilate" in="SourceAlpha" result="effect1_dropShadow_8953_1636"/>
<feOffset/>
<feGaussianBlur stdDeviation="7"/>
<feComposite in2="hardAlpha" operator="out"/>
<feColorMatrix type="matrix" values="0 0 0 0 0.101256 0 0 0 0 0.0384361 0 0 0 0 0.172451 0 0 0 1 0"/>
<feBlend mode="normal" in2="BackgroundImageFix" result="effect1_dropShadow_8953_1636"/>
<feBlend mode="normal" in="SourceGraphic" in2="effect1_dropShadow_8953_1636" result="shape"/>
</filter>
<clipPath id="clip0_8953_1636">
<rect width="300" height="190" fill="white"/>
</clipPath>
</defs>
</svg>
