<svg width="300" height="190" viewBox="0 0 300 190" fill="none" xmlns="http://www.w3.org/2000/svg">
<g clip-path="url(#clip0_8953_1741)">
<g filter="url(#filter0_d_8953_1741)">
<path d="M48 65.75H206.25V124.25H48C43.9959 124.25 40.75 121.004 40.75 117V73C40.75 68.9959 43.9959 65.75 48 65.75Z" fill="#353157" stroke="#86839A" stroke-width="1.5"/>
<mask id="path-2-inside-1_8953_1741" fill="white">
<path d="M260 73C260 68.5817 256.418 65 252 65H207V125H252C256.418 125 260 121.418 260 117V73Z"/>
</mask>
<path d="M260 73C260 68.5817 256.418 65 252 65H207V125H252C256.418 125 260 121.418 260 117V73Z" fill="#353157"/>
<path d="M261.5 73C261.5 67.7533 257.247 63.5 252 63.5H207V66.5H252C255.59 66.5 258.5 69.4101 258.5 73H261.5ZM207 126.5H252C257.247 126.5 261.5 122.247 261.5 117H258.5C258.5 120.59 255.59 123.5 252 123.5H207V126.5ZM252 126.5C257.247 126.5 261.5 122.247 261.5 117V73C261.5 67.7533 257.247 63.5 252 63.5V66.5C255.59 66.5 258.5 69.4101 258.5 73V117C258.5 120.59 255.59 123.5 252 123.5V126.5ZM252 123.5M207 65V125V65" fill="#86839A" mask="url(#path-2-inside-1_8953_1741)"/>
<rect x="56" y="91" width="60" height="8" rx="4" fill="#86839A"/>
<path d="M238 86L230 78L222 86" stroke="#D7D6DD" stroke-width="3" stroke-linecap="round" stroke-linejoin="round"/>
<path d="M238 104L230 112L222 104" stroke="#D7D6DD" stroke-width="3" stroke-linecap="round" stroke-linejoin="round"/>
</g>
</g>
<defs>
<filter id="filter0_d_8953_1741" x="22" y="47" width="256" height="96" filterUnits="userSpaceOnUse" color-interpolation-filters="sRGB">
<feFlood flood-opacity="0" result="BackgroundImageFix"/>
<feColorMatrix in="SourceAlpha" type="matrix" values="0 0 0 0 0 0 0 0 0 0 0 0 0 0 0 0 0 0 127 0" result="hardAlpha"/>
<feMorphology radius="4" operator="dilate" in="SourceAlpha" result="effect1_dropShadow_8953_1741"/>
<feOffset/>
<feGaussianBlur stdDeviation="7"/>
<feComposite in2="hardAlpha" operator="out"/>
<feColorMatrix type="matrix" values="0 0 0 0 0.101256 0 0 0 0 0.0384361 0 0 0 0 0.172451 0 0 0 1 0"/>
<feBlend mode="normal" in2="BackgroundImageFix" result="effect1_dropShadow_8953_1741"/>
<feBlend mode="normal" in="SourceGraphic" in2="effect1_dropShadow_8953_1741" result="shape"/>
</filter>
<clipPath id="clip0_8953_1741">
<rect width="300" height="190" fill="white"/>
</clipPath>
</defs>
</svg>
