<svg width="300" height="190" viewBox="0 0 300 190" fill="none" xmlns="http://www.w3.org/2000/svg">
<g clip-path="url(#clip0_8953_1693)">
<g filter="url(#filter0_d_8953_1693)">
<circle cx="150" cy="95" r="50" fill="#353157"/>
<circle cx="150" cy="95" r="50.75" stroke="#86839A" stroke-width="1.5"/>
</g>
<path d="M113.748 116.594L106.82 120.594" stroke="#86839A" stroke-width="1.5" stroke-linecap="round"/>
<path d="M193.928 70.3015L187 74.3014" stroke="#86839A" stroke-width="1.5" stroke-linecap="round"/>
<path d="M171.699 130.901L175.699 137.829" stroke="#86839A" stroke-width="1.5" stroke-linecap="round"/>
<path d="M125.699 51.2266L129.699 58.1548" stroke="#86839A" stroke-width="1.5" stroke-linecap="round"/>
<path d="M130 131.674L126 138.603" stroke="#86839A" stroke-width="1.5" stroke-linecap="round"/>
<path d="M176 52L172 58.9282" stroke="#86839A" stroke-width="1.5" stroke-linecap="round"/>
<path d="M113.326 74.0001L106.397 70" stroke="#86839A" stroke-width="1.5" stroke-linecap="round"/>
<path d="M193 120L186.072 116" stroke="#86839A" stroke-width="1.5" stroke-linecap="round"/>
<path d="M150.699 137L150.699 145" stroke="#86839A" stroke-width="1.5" stroke-linecap="round"/>
<path d="M150.699 45L150.699 53" stroke="#86839A" stroke-width="1.5" stroke-linecap="round"/>
<path d="M108 95.3012L100 95.3013" stroke="#86839A" stroke-width="1.5" stroke-linecap="round"/>
<path d="M200 95.3012L192 95.3013" stroke="#86839A" stroke-width="1.5" stroke-linecap="round"/>
<path d="M146.718 66.3413L150.698 95.3012" stroke="#D7D6DD" stroke-width="4" stroke-linecap="round"/>
<path d="M169.521 110.968L150.699 95.3013" stroke="#D7D6DD" stroke-width="4" stroke-linecap="round"/>
</g>
<defs>
<filter id="filter0_d_8953_1693" x="86.5" y="35.5" width="127" height="127" filterUnits="userSpaceOnUse" color-interpolation-filters="sRGB">
<feFlood flood-opacity="0" result="BackgroundImageFix"/>
<feColorMatrix in="SourceAlpha" type="matrix" values="0 0 0 0 0 0 0 0 0 0 0 0 0 0 0 0 0 0 127 0" result="hardAlpha"/>
<feMorphology radius="2" operator="dilate" in="SourceAlpha" result="effect1_dropShadow_8953_1693"/>
<feOffset dy="4"/>
<feGaussianBlur stdDeviation="5"/>
<feComposite in2="hardAlpha" operator="out"/>
<feColorMatrix type="matrix" values="0 0 0 0 0.0820139 0 0 0 0 0.0016642 0 0 0 0 0.173077 0 0 0 0.5 0"/>
<feBlend mode="normal" in2="BackgroundImageFix" result="effect1_dropShadow_8953_1693"/>
<feBlend mode="normal" in="SourceGraphic" in2="effect1_dropShadow_8953_1693" result="shape"/>
</filter>
<clipPath id="clip0_8953_1693">
<rect width="300" height="190" fill="white"/>
</clipPath>
</defs>
</svg>
