<svg width="300" height="190" viewBox="0 0 300 190" fill="none" xmlns="http://www.w3.org/2000/svg">
<g clip-path="url(#clip0_8568_14)">
<g filter="url(#filter0_d_8568_14)">
<mask id="path-1-inside-1_8568_14" fill="white">
<path d="M36 75C36 70.5817 39.5817 67 44 67H112V123H44C39.5817 123 36 119.418 36 115V75Z"/>
</mask>
<path d="M36 75C36 70.5817 39.5817 67 44 67H112V123H44C39.5817 123 36 119.418 36 115V75Z" fill="white"/>
<path d="M34.5 75C34.5 69.7533 38.7533 65.5 44 65.5H112V68.5H44C40.4101 68.5 37.5 71.4101 37.5 75H34.5ZM112 124.5H44C38.7533 124.5 34.5 120.247 34.5 115H37.5C37.5 118.59 40.4101 121.5 44 121.5H112V124.5ZM44 124.5C38.7533 124.5 34.5 120.247 34.5 115V75C34.5 69.7533 38.7533 65.5 44 65.5V68.5C40.4101 68.5 37.5 71.4101 37.5 75V115C37.5 118.59 40.4101 121.5 44 121.5V124.5ZM44 121.5M112 67V123V67" fill="#D7CDE4" mask="url(#path-1-inside-1_8568_14)"/>
<rect x="54" y="92" width="40" height="6" rx="3" fill="#6D30B2"/>
<mask id="path-4-inside-2_8568_14" fill="white">
<path d="M112 67H188V123H112V67Z"/>
</mask>
<path d="M112 67H188V123H112V67Z" fill="white"/>
<path d="M112 67V65.5H110.5V67H112ZM112 123H110.5V124.5H112V123ZM112 67V68.5H188V67V65.5H112V67ZM188 123V121.5H112V123V124.5H188V123ZM112 123H113.5V67H112H110.5V123H112Z" fill="#D7CDE4" mask="url(#path-4-inside-2_8568_14)"/>
<rect x="130" y="92" width="40" height="6" rx="3" fill="#6D30B2"/>
<path d="M256 67.75H188.75V122.25H256C260.004 122.25 263.25 119.004 263.25 115V75C263.25 70.9959 260.004 67.75 256 67.75Z" fill="white" stroke="#D7CDE4" stroke-width="1.5"/>
<rect x="206" y="92" width="40" height="6" rx="3" fill="#6D30B2"/>
</g>
</g>
<defs>
<filter id="filter0_d_8568_14" x="-8" y="27" width="316" height="144" filterUnits="userSpaceOnUse" color-interpolation-filters="sRGB">
<feFlood flood-opacity="0" result="BackgroundImageFix"/>
<feColorMatrix in="SourceAlpha" type="matrix" values="0 0 0 0 0 0 0 0 0 0 0 0 0 0 0 0 0 0 127 0" result="hardAlpha"/>
<feMorphology radius="4" operator="dilate" in="SourceAlpha" result="effect1_dropShadow_8568_14"/>
<feOffset dy="4"/>
<feGaussianBlur stdDeviation="20"/>
<feComposite in2="hardAlpha" operator="out"/>
<feColorMatrix type="matrix" values="0 0 0 0 0.913099 0 0 0 0 0.855164 0 0 0 0 1 0 0 0 0.64 0"/>
<feBlend mode="normal" in2="BackgroundImageFix" result="effect1_dropShadow_8568_14"/>
<feBlend mode="normal" in="SourceGraphic" in2="effect1_dropShadow_8568_14" result="shape"/>
</filter>
<clipPath id="clip0_8568_14">
<rect width="300" height="190" fill="white"/>
</clipPath>
</defs>
</svg>
