<svg width="300" height="190" viewBox="0 0 300 190" fill="none" xmlns="http://www.w3.org/2000/svg">
<g clip-path="url(#clip0_8568_27)">
<g filter="url(#filter0_d_8568_27)">
<path d="M68 35.75H232C236.004 35.75 239.25 38.9959 239.25 43V60.25H60.75V43C60.75 38.9959 63.9959 35.75 68 35.75Z" fill="white" stroke="#D7CDE4" stroke-width="1.5"/>
<path d="M68 154.25H232C236.004 154.25 239.25 151.004 239.25 147V59.75H60.75V147C60.75 151.004 63.9959 154.25 68 154.25Z" fill="white" stroke="#D7CDE4" stroke-width="1.5"/>
<rect x="120" y="45" width="60" height="6" rx="3" fill="#EDE3FC"/>
<path d="M139.301 90.0909V125H132.977V96.2443H132.773L124.608 101.46V95.6648L133.284 90.0909H139.301ZM147.534 118.523V113.494L162.347 90.0909H166.54V97.25H163.983L154.011 113.051V113.324H174.688V118.523H147.534ZM164.188 125V116.989L164.256 114.739V90.0909H170.222V125H164.188Z" fill="#6D30B2"/>
</g>
</g>
<defs>
<filter id="filter0_d_8568_27" x="16" y="-5" width="268" height="208" filterUnits="userSpaceOnUse" color-interpolation-filters="sRGB">
<feFlood flood-opacity="0" result="BackgroundImageFix"/>
<feColorMatrix in="SourceAlpha" type="matrix" values="0 0 0 0 0 0 0 0 0 0 0 0 0 0 0 0 0 0 127 0" result="hardAlpha"/>
<feMorphology radius="4" operator="dilate" in="SourceAlpha" result="effect1_dropShadow_8568_27"/>
<feOffset dy="4"/>
<feGaussianBlur stdDeviation="20"/>
<feComposite in2="hardAlpha" operator="out"/>
<feColorMatrix type="matrix" values="0 0 0 0 0.913099 0 0 0 0 0.855164 0 0 0 0 1 0 0 0 0.64 0"/>
<feBlend mode="normal" in2="BackgroundImageFix" result="effect1_dropShadow_8568_27"/>
<feBlend mode="normal" in="SourceGraphic" in2="effect1_dropShadow_8568_27" result="shape"/>
</filter>
<clipPath id="clip0_8568_27">
<rect width="300" height="190" fill="white"/>
</clipPath>
</defs>
</svg>
