<svg width="300" height="190" viewBox="0 0 300 190" fill="none" xmlns="http://www.w3.org/2000/svg">
<g clip-path="url(#clip0_8568_35)">
<g filter="url(#filter0_d_8568_35)">
<path d="M68 35.75H232C236.004 35.75 239.25 38.9959 239.25 43V60.25H60.75V43C60.75 38.9959 63.9959 35.75 68 35.75Z" fill="white" stroke="#D7CDE4" stroke-width="1.5"/>
<path d="M68 154.25H232C236.004 154.25 239.25 151.004 239.25 147V59.75H60.75V147C60.75 151.004 63.9959 154.25 68 154.25Z" fill="white" stroke="#D7CDE4" stroke-width="1.5"/>
<rect x="120" y="45" width="60" height="6" rx="3" fill="#EDE3FC"/>
<path d="M85.0408 75.8551C85.0181 75.6259 84.9206 75.4479 84.7482 75.321C84.5759 75.1941 84.342 75.1307 84.0465 75.1307C83.8458 75.1307 83.6763 75.1591 83.538 75.2159C83.3997 75.2708 83.2937 75.3475 83.2198 75.446C83.1478 75.5445 83.1119 75.6562 83.1119 75.7812C83.1081 75.8854 83.1299 75.9763 83.1772 76.054C83.2264 76.1316 83.2937 76.1989 83.3789 76.2557C83.4641 76.3106 83.5626 76.3589 83.6744 76.4006C83.7861 76.4403 83.9054 76.4744 84.0323 76.5028L84.555 76.6278C84.8088 76.6847 85.0418 76.7604 85.2539 76.8551C85.466 76.9498 85.6497 77.0663 85.805 77.2045C85.9603 77.3428 86.0806 77.5057 86.1658 77.6932C86.253 77.8807 86.2975 78.0956 86.2994 78.3381C86.2975 78.6941 86.2066 79.0028 86.0266 79.2642C85.8486 79.5237 85.591 79.7254 85.2539 79.8693C84.9187 80.0114 84.5143 80.0824 84.0408 80.0824C83.5711 80.0824 83.1621 80.0104 82.8136 79.8665C82.467 79.7225 82.1961 79.5095 82.0011 79.2273C81.8079 78.9432 81.7066 78.5919 81.6971 78.1733H82.8874C82.9007 78.3684 82.9566 78.5312 83.055 78.6619C83.1554 78.7907 83.2889 78.8883 83.4556 78.9545C83.6242 79.0189 83.8145 79.0511 84.0266 79.0511C84.235 79.0511 84.4158 79.0208 84.5692 78.9602C84.7246 78.8996 84.8448 78.8153 84.93 78.7074C85.0153 78.5994 85.0579 78.4754 85.0579 78.3352C85.0579 78.2045 85.0191 78.0947 84.9414 78.0057C84.8656 77.9167 84.7539 77.8409 84.6062 77.7784C84.4603 77.7159 84.2814 77.6591 84.0692 77.608L83.4357 77.4489C82.9452 77.3295 82.5579 77.143 82.2738 76.8892C81.9897 76.6354 81.8486 76.2936 81.8505 75.8636C81.8486 75.5114 81.9424 75.2036 82.1317 74.9403C82.323 74.6771 82.5853 74.4716 82.9187 74.3239C83.252 74.1761 83.6308 74.1023 84.055 74.1023C84.4869 74.1023 84.8638 74.1761 85.1857 74.3239C85.5096 74.4716 85.7615 74.6771 85.9414 74.9403C86.1213 75.2036 86.2141 75.5085 86.2198 75.8551H85.0408Z" fill="#D7CDE4"/>
<path d="M102.846 74.1818H104.363L105.965 78.0909H106.033L107.635 74.1818H109.152V80H107.959V76.2131H107.911L106.405 79.9716H105.593L104.087 76.1989H104.039V80H102.846V74.1818Z" fill="#D7CDE4"/>
<path d="M125.612 75.196V74.1818H130.391V75.196H128.609V80H127.393V75.196H125.612Z" fill="#D7CDE4"/>
<path d="M147.671 80L146.006 74.1818H147.35L148.313 78.2244H148.361L149.424 74.1818H150.574L151.634 78.233H151.685L152.648 74.1818H153.992L152.327 80H151.128L150.02 76.196H149.975L148.87 80H147.671Z" fill="#D7CDE4"/>
<path d="M169.612 75.196V74.1818H174.391V75.196H172.609V80H171.393V75.196H169.612Z" fill="#D7CDE4"/>
<path d="M192.166 80V74.1818H196.018V75.196H193.396V76.5824H195.762V77.5966H193.396V80H192.166Z" fill="#D7CDE4"/>
<path d="M217.041 75.8551C217.018 75.6259 216.921 75.4479 216.748 75.321C216.576 75.1941 216.342 75.1307 216.047 75.1307C215.846 75.1307 215.676 75.1591 215.538 75.2159C215.4 75.2708 215.294 75.3475 215.22 75.446C215.148 75.5445 215.112 75.6562 215.112 75.7812C215.108 75.8854 215.13 75.9763 215.177 76.054C215.226 76.1316 215.294 76.1989 215.379 76.2557C215.464 76.3106 215.563 76.3589 215.674 76.4006C215.786 76.4403 215.905 76.4744 216.032 76.5028L216.555 76.6278C216.809 76.6847 217.042 76.7604 217.254 76.8551C217.466 76.9498 217.65 77.0663 217.805 77.2045C217.96 77.3428 218.081 77.5057 218.166 77.6932C218.253 77.8807 218.297 78.0956 218.299 78.3381C218.297 78.6941 218.207 79.0028 218.027 79.2642C217.849 79.5237 217.591 79.7254 217.254 79.8693C216.919 80.0114 216.514 80.0824 216.041 80.0824C215.571 80.0824 215.162 80.0104 214.814 79.8665C214.467 79.7225 214.196 79.5095 214.001 79.2273C213.808 78.9432 213.707 78.5919 213.697 78.1733H214.887C214.901 78.3684 214.957 78.5312 215.055 78.6619C215.155 78.7907 215.289 78.8883 215.456 78.9545C215.624 79.0189 215.815 79.0511 216.027 79.0511C216.235 79.0511 216.416 79.0208 216.569 78.9602C216.725 78.8996 216.845 78.8153 216.93 78.7074C217.015 78.5994 217.058 78.4754 217.058 78.3352C217.058 78.2045 217.019 78.0947 216.941 78.0057C216.866 77.9167 216.754 77.8409 216.606 77.7784C216.46 77.7159 216.281 77.6591 216.069 77.608L215.436 77.4489C214.945 77.3295 214.558 77.143 214.274 76.8892C213.99 76.6354 213.849 76.2936 213.85 75.8636C213.849 75.5114 213.942 75.2036 214.132 74.9403C214.323 74.6771 214.585 74.4716 214.919 74.3239C215.252 74.1761 215.631 74.1023 216.055 74.1023C216.487 74.1023 216.864 74.1761 217.186 74.3239C217.51 74.4716 217.761 74.6771 217.941 74.9403C218.121 75.2036 218.214 75.5085 218.22 75.8551H217.041Z" fill="#D7CDE4"/>
<rect x="80" y="92" width="8" height="8" rx="2" fill="#EDE3FC"/>
<rect x="102" y="92" width="8" height="8" rx="2" fill="#EDE3FC"/>
<rect x="124" y="92" width="8" height="8" rx="2" fill="#EDE3FC"/>
<rect x="146" y="92" width="8" height="8" rx="2" fill="#EDE3FC"/>
<rect x="168" y="92" width="8" height="8" rx="2" fill="#EDE3FC"/>
<rect x="190" y="92" width="8" height="8" rx="2" fill="#EDE3FC"/>
<rect x="212" y="92" width="8" height="8" rx="2" fill="#EDE3FC"/>
<rect x="80" y="112" width="8" height="8" rx="2" fill="#EDE3FC"/>
<rect x="102" y="112" width="8" height="8" rx="2" fill="#EDE3FC"/>
<rect x="124" y="112" width="8" height="8" rx="2" fill="#EDE3FC"/>
<rect x="146" y="112" width="8" height="8" rx="2" fill="#EDE3FC"/>
<rect x="168" y="112" width="8" height="8" rx="2" fill="#EDE3FC"/>
<rect x="190" y="112" width="8" height="8" rx="2" fill="#EDE3FC"/>
<rect x="212" y="112" width="8" height="8" rx="2" fill="#EDE3FC"/>
<rect x="80" y="132" width="8" height="8" rx="2" fill="#EDE3FC"/>
<rect x="102" y="132" width="8" height="8" rx="2" fill="#EDE3FC"/>
<rect x="124" y="132" width="8" height="8" rx="2" fill="#EDE3FC"/>
<rect x="146" y="132" width="8" height="8" rx="2" fill="#EDE3FC"/>
<rect x="168" y="132" width="8" height="8" rx="2" fill="#EDE3FC"/>
<rect x="190" y="132" width="8" height="8" rx="2" fill="#EDE3FC"/>
<rect x="212" y="132" width="8" height="8" rx="2" fill="#EDE3FC"/>
<rect x="165" y="109" width="14" height="14" rx="2" fill="#6D30B2"/>
</g>
</g>
<defs>
<filter id="filter0_d_8568_35" x="16" y="-5" width="268" height="208" filterUnits="userSpaceOnUse" color-interpolation-filters="sRGB">
<feFlood flood-opacity="0" result="BackgroundImageFix"/>
<feColorMatrix in="SourceAlpha" type="matrix" values="0 0 0 0 0 0 0 0 0 0 0 0 0 0 0 0 0 0 127 0" result="hardAlpha"/>
<feMorphology radius="4" operator="dilate" in="SourceAlpha" result="effect1_dropShadow_8568_35"/>
<feOffset dy="4"/>
<feGaussianBlur stdDeviation="20"/>
<feComposite in2="hardAlpha" operator="out"/>
<feColorMatrix type="matrix" values="0 0 0 0 0.913099 0 0 0 0 0.855164 0 0 0 0 1 0 0 0 0.64 0"/>
<feBlend mode="normal" in2="BackgroundImageFix" result="effect1_dropShadow_8568_35"/>
<feBlend mode="normal" in="SourceGraphic" in2="effect1_dropShadow_8568_35" result="shape"/>
</filter>
<clipPath id="clip0_8568_35">
<rect width="300" height="190" fill="white"/>
</clipPath>
</defs>
</svg>
