<svg width="300" height="190" viewBox="0 0 300 190" fill="none" xmlns="http://www.w3.org/2000/svg">
<g clip-path="url(#clip0_8568_168)">
<g filter="url(#filter0_d_8568_168)">
<path d="M48 65.75H206.25V124.25H48C43.9959 124.25 40.75 121.004 40.75 117V73C40.75 68.9959 43.9959 65.75 48 65.75Z" fill="white" stroke="#D7CDE4" stroke-width="1.5"/>
<path d="M252 65.75H200.75V124.25H252C256.004 124.25 259.25 121.004 259.25 117V73C259.25 68.9959 256.004 65.75 252 65.75Z" fill="white" stroke="#D7CDE4" stroke-width="1.5"/>
<rect x="56" y="91" width="60" height="8" rx="4" fill="#EDE3FC"/>
<path d="M238 86L230 78L222 86" stroke="#6D30B2" stroke-width="3" stroke-linecap="round" stroke-linejoin="round"/>
<path d="M238 104L230 112L222 104" stroke="#6D30B2" stroke-width="3" stroke-linecap="round" stroke-linejoin="round"/>
</g>
</g>
<defs>
<filter id="filter0_d_8568_168" x="-4" y="25" width="308" height="148" filterUnits="userSpaceOnUse" color-interpolation-filters="sRGB">
<feFlood flood-opacity="0" result="BackgroundImageFix"/>
<feColorMatrix in="SourceAlpha" type="matrix" values="0 0 0 0 0 0 0 0 0 0 0 0 0 0 0 0 0 0 127 0" result="hardAlpha"/>
<feMorphology radius="4" operator="dilate" in="SourceAlpha" result="effect1_dropShadow_8568_168"/>
<feOffset dy="4"/>
<feGaussianBlur stdDeviation="20"/>
<feComposite in2="hardAlpha" operator="out"/>
<feColorMatrix type="matrix" values="0 0 0 0 0.913099 0 0 0 0 0.855164 0 0 0 0 1 0 0 0 0.64 0"/>
<feBlend mode="normal" in2="BackgroundImageFix" result="effect1_dropShadow_8568_168"/>
<feBlend mode="normal" in="SourceGraphic" in2="effect1_dropShadow_8568_168" result="shape"/>
</filter>
<clipPath id="clip0_8568_168">
<rect width="300" height="190" fill="white"/>
</clipPath>
</defs>
</svg>
