<svg width="300" height="190" viewBox="0 0 300 190" fill="none" xmlns="http://www.w3.org/2000/svg">
<g clip-path="url(#clip0_8568_98)">
<g filter="url(#filter0_d_8568_98)">
<circle cx="150" cy="95" r="50.75" fill="white" stroke="#D7CDE4" stroke-width="1.5"/>
<path d="M113.748 116.594L106.82 120.594" stroke="#D7CDE4" stroke-width="1.5" stroke-linecap="round"/>
<path d="M193.928 70.3015L187 74.3015" stroke="#D7CDE4" stroke-width="1.5" stroke-linecap="round"/>
<path d="M171.699 130.901L175.699 137.829" stroke="#D7CDE4" stroke-width="1.5" stroke-linecap="round"/>
<path d="M125.699 51.2264L129.699 58.1545" stroke="#D7CDE4" stroke-width="1.5" stroke-linecap="round"/>
<path d="M130 131.674L126 138.603" stroke="#D7CDE4" stroke-width="1.5" stroke-linecap="round"/>
<path d="M176 52L172 58.9282" stroke="#D7CDE4" stroke-width="1.5" stroke-linecap="round"/>
<path d="M113.326 74.0001L106.397 70" stroke="#D7CDE4" stroke-width="1.5" stroke-linecap="round"/>
<path d="M193 120L186.072 116" stroke="#D7CDE4" stroke-width="1.5" stroke-linecap="round"/>
<path d="M150.699 137L150.699 145" stroke="#D7CDE4" stroke-width="1.5" stroke-linecap="round"/>
<path d="M150.699 45L150.699 53" stroke="#D7CDE4" stroke-width="1.5" stroke-linecap="round"/>
<path d="M108 95.3012L100 95.3013" stroke="#D7CDE4" stroke-width="1.5" stroke-linecap="round"/>
<path d="M200 95.3012L192 95.3013" stroke="#D7CDE4" stroke-width="1.5" stroke-linecap="round"/>
<path d="M146.718 66.3413L150.698 95.3013" stroke="#6D30B2" stroke-width="4" stroke-linecap="round"/>
<path d="M169.52 110.968L150.698 95.3013" stroke="#6D30B2" stroke-width="4" stroke-linecap="round"/>
</g>
</g>
<defs>
<filter id="filter0_d_8568_98" x="54.5" y="3.5" width="191" height="191" filterUnits="userSpaceOnUse" color-interpolation-filters="sRGB">
<feFlood flood-opacity="0" result="BackgroundImageFix"/>
<feColorMatrix in="SourceAlpha" type="matrix" values="0 0 0 0 0 0 0 0 0 0 0 0 0 0 0 0 0 0 127 0" result="hardAlpha"/>
<feMorphology radius="4" operator="dilate" in="SourceAlpha" result="effect1_dropShadow_8568_98"/>
<feOffset dy="4"/>
<feGaussianBlur stdDeviation="20"/>
<feComposite in2="hardAlpha" operator="out"/>
<feColorMatrix type="matrix" values="0 0 0 0 0.913099 0 0 0 0 0.855164 0 0 0 0 1 0 0 0 0.64 0"/>
<feBlend mode="normal" in2="BackgroundImageFix" result="effect1_dropShadow_8568_98"/>
<feBlend mode="normal" in="SourceGraphic" in2="effect1_dropShadow_8568_98" result="shape"/>
</filter>
<clipPath id="clip0_8568_98">
<rect width="300" height="190" fill="white"/>
</clipPath>
</defs>
</svg>
